<svg width="28" height="28" viewBox="0 0 28 28" fill="none" xmlns="http://www.w3.org/2000/svg">
<path d="M15.6147 22.4C15.4506 22.6828 15.2151 22.9176 14.9317 23.0809C14.6483 23.2441 14.3271 23.33 14 23.33C13.673 23.33 13.3517 23.2441 13.0684 23.0809C12.785 22.9176 12.5495 22.6828 12.3854 22.4" stroke="white" stroke-width="2" stroke-linecap="round" stroke-linejoin="round"/>
<path fill-rule="evenodd" clip-rule="evenodd" d="M14.0001 3.66663C12.2496 3.66663 10.5709 4.36198 9.33315 5.59972C8.09541 6.83746 7.40005 8.5162 7.40005 10.2666C7.40005 13.386 6.73299 15.3179 6.12216 16.4378C5.81536 17.0002 5.51728 17.368 5.3116 17.5851C5.2085 17.694 5.12793 17.7656 5.08018 17.8054C5.05629 17.8253 5.04059 17.8373 5.03435 17.8419L5.03287 17.843C4.675 18.0894 4.51672 18.5395 4.64296 18.9564C4.77066 19.3782 5.15939 19.6666 5.60005 19.6666H22.4001C22.8407 19.6666 23.2294 19.3782 23.3571 18.9564C23.4834 18.5395 23.3251 18.0894 22.9672 17.843L22.9658 17.8419C22.9595 17.8373 22.9438 17.8253 22.9199 17.8054C22.8722 17.7656 22.7916 17.694 22.6885 17.5851C22.4828 17.368 22.1847 17.0002 21.878 16.4378C21.699 16.1097 21.5153 15.712 21.3449 15.2351C20.7479 15.5151 20.0973 15.6996 19.4127 15.7691C19.6294 16.3999 19.873 16.9386 20.1222 17.3955C20.1734 17.4895 20.2248 17.5798 20.2762 17.6666H7.72392C7.77528 17.5798 7.82669 17.4895 7.87795 17.3955C8.66712 15.9487 9.40005 13.6806 9.40005 10.2666C9.40005 9.04663 9.8847 7.8766 10.7474 7.01393C11.61 6.15127 12.7801 5.66663 14.0001 5.66663C14.1448 5.66663 14.2888 5.67344 14.4316 5.6869C15.0369 5.04429 15.7824 4.53522 16.6193 4.20859C15.8001 3.85444 14.9098 3.66663 14.0001 3.66663Z" fill="white"/>
<circle cx="18.8" cy="9.79999" r="4" fill="#DAD873"/>
</svg>
