<svg width="28" height="28" viewBox="0 0 28 28" fill="none" xmlns="http://www.w3.org/2000/svg">
<path d="M15.6147 22.4001C15.4506 22.683 15.2151 22.9178 14.9317 23.081C14.6483 23.2443 14.3271 23.3302 14 23.3302C13.673 23.3302 13.3517 23.2443 13.0684 23.081C12.785 22.9178 12.5495 22.683 12.3854 22.4001" stroke="#1A1A1A" stroke-width="2" stroke-linecap="round" stroke-linejoin="round"/>
<path fill-rule="evenodd" clip-rule="evenodd" d="M14.0001 3.66675C12.2496 3.66675 10.5709 4.3621 9.33315 5.59984C8.09541 6.83758 7.40005 8.51632 7.40005 10.2667C7.40005 13.3861 6.73299 15.318 6.12216 16.4379C5.81536 17.0004 5.51728 17.3681 5.3116 17.5853C5.2085 17.6941 5.12793 17.7658 5.08018 17.8056C5.05629 17.8255 5.04059 17.8374 5.03435 17.8421L5.03287 17.8432C4.675 18.0895 4.51672 18.5396 4.64296 18.9565C4.77066 19.3783 5.15939 19.6667 5.60005 19.6667H22.4001C22.8407 19.6667 23.2294 19.3783 23.3571 18.9565C23.4834 18.5396 23.3251 18.0895 22.9672 17.8431L22.9658 17.8421C22.9595 17.8374 22.9438 17.8255 22.9199 17.8056C22.8722 17.7658 22.7916 17.6941 22.6885 17.5853C22.4828 17.3681 22.1847 17.0004 21.878 16.4379C21.699 16.1098 21.5153 15.7121 21.3449 15.2353C20.7479 15.5152 20.0973 15.6998 19.4127 15.7692C19.6294 16.4 19.873 16.9387 20.1222 17.3956C20.1734 17.4896 20.2248 17.5799 20.2762 17.6667H7.72392C7.77528 17.5799 7.82669 17.4896 7.87795 17.3956C8.66712 15.9488 9.40005 13.6808 9.40005 10.2667C9.40005 9.04675 9.8847 7.87672 10.7474 7.01406C11.61 6.15139 12.7801 5.66675 14.0001 5.66675C14.1448 5.66675 14.2888 5.67357 14.4316 5.68703C15.0369 5.04441 15.7824 4.53534 16.6193 4.20871C15.8001 3.85456 14.9098 3.66675 14.0001 3.66675Z" fill="#1A1A1A"/>
<circle cx="18.8" cy="9.80005" r="4" fill="#58B368"/>
</svg>
