<svg width="24" height="24" viewBox="0 0 24 24" fill="none" xmlns="http://www.w3.org/2000/svg">
<path d="M11.9997 12.9334C12.5152 12.9334 12.9331 12.5156 12.9331 12.0001C12.9331 11.4846 12.5152 11.0668 11.9997 11.0668C11.4843 11.0668 11.0664 11.4846 11.0664 12.0001C11.0664 12.5156 11.4843 12.9334 11.9997 12.9334Z" stroke="white" stroke-width="2" stroke-linecap="round" stroke-linejoin="round"/>
<path d="M11.9997 6.39999C12.5152 6.39999 12.9331 5.98212 12.9331 5.46666C12.9331 4.95119 12.5152 4.53333 11.9997 4.53333C11.4843 4.53333 11.0664 4.95119 11.0664 5.46666C11.0664 5.98212 11.4843 6.39999 11.9997 6.39999Z" stroke="white" stroke-width="2" stroke-linecap="round" stroke-linejoin="round"/>
<path d="M11.9997 19.4668C12.5152 19.4668 12.9331 19.0489 12.9331 18.5334C12.9331 18.018 12.5152 17.6001 11.9997 17.6001C11.4843 17.6001 11.0664 18.018 11.0664 18.5334C11.0664 19.0489 11.4843 19.4668 11.9997 19.4668Z" stroke="white" stroke-width="2" stroke-linecap="round" stroke-linejoin="round"/>
</svg>
