<svg width="30" height="28" viewBox="0 0 30 28" fill="none" xmlns="http://www.w3.org/2000/svg">
<path d="M23.84 7.10264C23.3292 6.62571 22.7228 6.24737 22.0554 5.98925C21.3879 5.73112 20.6725 5.59827 19.95 5.59827C19.2275 5.59827 18.5121 5.73112 17.8446 5.98925C17.1772 6.24737 16.5708 6.62571 16.06 7.10264L15 8.09197L13.94 7.10264C12.9083 6.13972 11.509 5.59877 10.05 5.59877C8.59096 5.59877 7.19169 6.13972 6.16 7.10264C5.1283 8.06555 4.54871 9.37154 4.54871 10.7333C4.54871 12.0951 5.1283 13.4011 6.16 14.364L7.22 15.3533L15 22.6146L22.78 15.3533L23.84 14.364C24.351 13.8873 24.7563 13.3213 25.0329 12.6983C25.3095 12.0753 25.4518 11.4076 25.4518 10.7333C25.4518 10.059 25.3095 9.39127 25.0329 8.76831C24.7563 8.14534 24.351 7.57934 23.84 7.10264V7.10264Z" stroke="#EFEEB4" stroke-width="2" stroke-linecap="round" stroke-linejoin="round"/>
</svg>
