<svg width="30" height="28" viewBox="0 0 30 28" fill="none" xmlns="http://www.w3.org/2000/svg">
<path d="M23.8401 7.10276C23.3294 6.62583 22.7229 6.2475 22.0555 5.98937C21.388 5.73125 20.6726 5.59839 19.9501 5.59839C19.2276 5.59839 18.5122 5.73125 17.8448 5.98937C17.1773 6.2475 16.5709 6.62583 16.0601 7.10276L15.0001 8.09209L13.9401 7.10276C12.9084 6.13985 11.5092 5.59889 10.0501 5.59889C8.59109 5.59889 7.19181 6.13985 6.16012 7.10276C5.12843 8.06567 4.54883 9.37166 4.54883 10.7334C4.54883 12.0952 5.12843 13.4012 6.16012 14.3641L7.22012 15.3534L15.0001 22.6148L22.7801 15.3534L23.8401 14.3641C24.3511 13.8874 24.7565 13.3214 25.033 12.6984C25.3096 12.0755 25.4519 11.4077 25.4519 10.7334C25.4519 10.0591 25.3096 9.39139 25.033 8.76843C24.7565 8.14547 24.3511 7.57946 23.8401 7.10276V7.10276Z" stroke="white" stroke-width="2" stroke-linecap="round" stroke-linejoin="round"/>
</svg>
