<svg width="30" height="30" viewBox="0 0 30 30" fill="none" xmlns="http://www.w3.org/2000/svg">
<path d="M15 25C20.5228 25 25 20.5228 25 15C25 9.47715 20.5228 5 15 5C9.47715 5 5 9.47715 5 15C5 20.5228 9.47715 25 15 25Z" stroke="#309975" stroke-width="2" stroke-linecap="round" stroke-linejoin="round"/>
<path d="M12.09 12C12.3251 11.3317 12.7891 10.7681 13.3999 10.4091C14.0107 10.0502 14.7289 9.91894 15.4271 10.0387C16.1254 10.1585 16.7588 10.5215 17.215 11.0635C17.6713 11.6055 17.921 12.2915 17.92 13C17.92 15 14.92 16 14.92 16" stroke="#309975" stroke-width="2" stroke-linecap="round" stroke-linejoin="round"/>
<path d="M15 20H15.01" stroke="#309975" stroke-width="2" stroke-linecap="round" stroke-linejoin="round"/>
</svg>
