<svg width="24" height="24" viewBox="0 0 24 24" fill="none" xmlns="http://www.w3.org/2000/svg">
<path d="M12.0001 12.9333C12.5156 12.9333 12.9334 12.5155 12.9334 12C12.9334 11.4845 12.5156 11.0667 12.0001 11.0667C11.4846 11.0667 11.0668 11.4845 11.0668 12C11.0668 12.5155 11.4846 12.9333 12.0001 12.9333Z" stroke="white" stroke-width="2" stroke-linecap="round" stroke-linejoin="round"/>
<path d="M12.0001 6.4C12.5156 6.4 12.9334 5.98213 12.9334 5.46667C12.9334 4.9512 12.5156 4.53333 12.0001 4.53333C11.4846 4.53333 11.0668 4.9512 11.0668 5.46667C11.0668 5.98213 11.4846 6.4 12.0001 6.4Z" stroke="white" stroke-width="2" stroke-linecap="round" stroke-linejoin="round"/>
<path d="M12.0001 19.4667C12.5156 19.4667 12.9334 19.0488 12.9334 18.5333C12.9334 18.0179 12.5156 17.6 12.0001 17.6C11.4846 17.6 11.0668 18.0179 11.0668 18.5333C11.0668 19.0488 11.4846 19.4667 12.0001 19.4667Z" stroke="white" stroke-width="2" stroke-linecap="round" stroke-linejoin="round"/>
</svg>
