<svg width="30" height="28" viewBox="0 0 30 28" fill="none" xmlns="http://www.w3.org/2000/svg">
<path d="M15 14.9333C15.5523 14.9333 16 14.5154 16 14C16 13.4845 15.5523 13.0667 15 13.0667C14.4477 13.0667 14 13.4845 14 14C14 14.5154 14.4477 14.9333 15 14.9333Z" stroke="white" stroke-width="2" stroke-linecap="round" stroke-linejoin="round"/>
<path d="M22 14.9333C22.5523 14.9333 23 14.5154 23 14C23 13.4845 22.5523 13.0667 22 13.0667C21.4477 13.0667 21 13.4845 21 14C21 14.5154 21.4477 14.9333 22 14.9333Z" stroke="white" stroke-width="2" stroke-linecap="round" stroke-linejoin="round"/>
<path d="M8 14.9333C8.55228 14.9333 9 14.5154 9 14C9 13.4845 8.55228 13.0667 8 13.0667C7.44772 13.0667 7 13.4845 7 14C7 14.5154 7.44772 14.9333 8 14.9333Z" stroke="white" stroke-width="2" stroke-linecap="round" stroke-linejoin="round"/>
</svg>
