<svg width="300" height="300" viewBox="0 0 300 300" fill="none" xmlns="http://www.w3.org/2000/svg">
<path d="M150 282.547C205.228 282.547 250 280.308 250 277.547C250 274.785 205.228 272.547 150 272.547C94.7715 272.547 50 274.785 50 277.547C50 280.308 94.7715 282.547 150 282.547Z" fill="#309975"/>
<path d="M210 130V230H90V210H97.5V122.5C97.4988 108.693 102.937 95.441 112.636 85.6146C122.336 75.7882 135.516 70.1783 149.322 70C149.548 70 149.774 70 150 70C150.226 70 150.452 70 150.678 70C166.473 70.1785 181.561 76.5786 192.667 87.8115C203.773 99.0444 210.001 114.204 210 130Z" fill="#309975"/>
<path d="M230 220C230 222.652 228.946 225.196 227.071 227.071C225.196 228.946 222.652 230 220 230H90C87.3478 230 84.8043 228.946 82.9289 227.071C81.0536 225.196 80 222.652 80 220C80 217.348 81.0536 214.804 82.9289 212.929C84.8043 211.054 87.3478 210 90 210H220C222.652 210 225.196 211.054 227.071 212.929C228.946 214.804 230 217.348 230 220Z" fill="#309975"/>
<path d="M162 70C162 70.4 161.98 70.8 161.942 71.19C154.06 69.6033 145.94 69.6033 138.058 71.19C138.02 70.8 138 70.4 138 70C138 66.8174 139.264 63.7651 141.515 61.5147C143.765 59.2643 146.817 58 150 58C153.183 58 156.235 59.2643 158.485 61.5147C160.736 63.7651 162 66.8174 162 70Z" fill="#309975"/>
<path d="M168.336 230C166.778 233.567 164.214 236.602 160.958 238.733C157.701 240.864 153.894 242 150.002 242C146.11 242 142.303 240.864 139.046 238.733C135.79 236.602 133.226 233.567 131.668 230H168.336Z" fill="#309975"/>
<path d="M202.5 122.5V230H97.5V122.5C97.4988 108.693 102.937 95.441 112.636 85.6146C122.336 75.7882 135.516 70.1783 149.322 70C149.548 70 149.774 70 150 70C150.226 70 150.452 70 150.678 70C164.484 70.1783 177.664 75.7882 187.364 85.6146C197.063 95.441 202.501 108.693 202.5 122.5Z" fill="url(#paint0_linear)"/>
<path d="M220 220C220 222.652 218.946 225.196 217.071 227.071C215.196 228.946 212.652 230 210 230H90C87.3478 230 84.8043 228.946 82.9289 227.071C81.0536 225.196 80 222.652 80 220C80 217.348 81.0536 214.804 82.9289 212.929C84.8043 211.054 87.3478 210 90 210H210C212.652 210 215.196 211.054 217.071 212.929C218.946 214.804 220 217.348 220 220Z" fill="url(#paint1_linear)"/>
<path d="M158 70.0002C158 70.1782 157.996 70.3542 157.988 70.5282C155.34 70.1761 152.671 69.9997 150 70.0002C149.33 70.0002 148.664 70.0102 148 70.0342C147.336 70.0102 146.67 70.0002 146 70.0002C143.329 69.9997 140.66 70.1761 138.012 70.5282C138.004 70.3542 138 70.1782 138 70.0002C137.754 68.5458 137.828 67.0554 138.217 65.6327C138.607 64.21 139.302 62.8893 140.254 61.7627C141.206 60.6361 142.392 59.7307 143.73 59.1097C145.068 58.4887 146.525 58.167 148 58.167C149.475 58.167 150.932 58.4887 152.27 59.1097C153.608 59.7307 154.794 60.6361 155.746 61.7627C156.698 62.8893 157.393 64.21 157.782 65.6327C158.172 67.0554 158.246 68.5458 158 70.0002Z" fill="url(#paint2_linear)"/>
<path d="M162.336 230C161.434 233.378 159.442 236.364 156.669 238.493C153.897 240.623 150.498 241.777 147.002 241.777C143.506 241.777 140.107 240.623 137.335 238.493C134.562 236.364 132.57 233.378 131.668 230H162.336Z" fill="url(#paint3_linear)"/>
<path d="M219.833 209H211V183C211 182.735 210.895 182.48 210.707 182.293C210.52 182.105 210.265 182 210 182C209.735 182 209.48 182.105 209.293 182.293C209.105 182.48 209 182.735 209 183V209H114.043C113.79 208.996 113.543 209.085 113.352 209.251C113.16 209.417 113.037 209.648 113.005 209.9C112.991 210.04 113.006 210.18 113.05 210.313C113.094 210.447 113.166 210.569 113.26 210.673C113.354 210.776 113.469 210.859 113.598 210.916C113.726 210.972 113.865 211.001 114.005 211H220C222.359 211.002 224.624 211.93 226.307 213.584C227.99 215.238 228.957 217.486 229 219.845C229.003 221.049 228.769 222.241 228.309 223.354C227.85 224.466 227.175 225.477 226.324 226.328C225.473 227.179 224.462 227.853 223.349 228.311C222.236 228.77 221.044 229.004 219.84 229H201.04C200.786 228.996 200.54 229.085 200.349 229.251C200.157 229.417 200.034 229.648 200.002 229.9C199.988 230.04 200.003 230.18 200.047 230.313C200.091 230.447 200.163 230.569 200.257 230.673C200.351 230.776 200.466 230.859 200.595 230.916C200.723 230.972 200.862 231.001 201.002 231H220.002C221.447 230.989 222.875 230.694 224.205 230.131C225.536 229.568 226.742 228.748 227.756 227.719C228.769 226.69 229.571 225.471 230.113 224.132C230.656 222.794 230.929 221.361 230.919 219.917C230.908 218.472 230.612 217.044 230.049 215.713C229.486 214.383 228.667 213.176 227.638 212.163C226.608 211.149 225.39 210.348 224.051 209.805C222.712 209.263 221.28 208.989 219.835 209H219.833Z" fill="#1A1A1A"/>
<path d="M190.957 229H80.1568C78.9535 229.004 77.7613 228.769 76.6488 228.31C75.5364 227.852 74.5256 227.177 73.6746 226.327C72.8236 225.476 72.1492 224.465 71.6901 223.353C71.2311 222.24 70.9965 221.048 70.9998 219.845C71.0433 217.486 72.0103 215.238 73.6931 213.584C75.376 211.93 77.6403 211.002 79.9998 211H107.957C108.21 211.004 108.456 210.915 108.648 210.749C108.84 210.582 108.963 210.352 108.995 210.1C109.009 209.961 108.993 209.82 108.949 209.687C108.905 209.553 108.834 209.431 108.74 209.327C108.645 209.224 108.53 209.141 108.402 209.084C108.274 209.028 108.135 208.999 107.995 209H90.9998V130C90.9774 119.937 93.5436 110.038 98.4518 101.253C98.5786 101.024 98.6104 100.754 98.5403 100.501C98.4701 100.249 98.3037 100.034 98.0768 99.903C97.9617 99.8364 97.8345 99.7934 97.7026 99.7766C97.5706 99.7598 97.4367 99.7694 97.3086 99.805C97.1804 99.8406 97.0607 99.9014 96.9563 99.9838C96.852 100.066 96.7651 100.169 96.7008 100.285C91.6289 109.366 88.9774 119.599 89.0008 130V209H80.1678C78.7233 208.989 77.2907 209.263 75.9519 209.805C74.6131 210.348 73.3944 211.149 72.3652 212.163C71.336 213.176 70.5165 214.383 69.9536 215.713C69.3906 217.044 69.0953 218.472 69.0843 219.916C69.0733 221.361 69.347 222.794 69.8897 224.132C70.4323 225.471 71.2334 226.69 72.2471 227.719C73.2608 228.748 74.4673 229.568 75.7976 230.131C77.128 230.694 78.5563 230.989 80.0008 231H131.025C132.727 234.592 135.414 237.627 138.774 239.752C142.133 241.877 146.026 243.005 150.001 243.005C153.976 243.005 157.869 241.877 161.228 239.752C164.587 237.627 167.274 234.592 168.977 231H191C191.14 231.001 191.279 230.972 191.407 230.915C191.535 230.859 191.65 230.776 191.745 230.673C191.839 230.569 191.91 230.447 191.954 230.313C191.998 230.18 192.014 230.039 192 229.9C191.968 229.648 191.844 229.416 191.651 229.25C191.459 229.083 191.211 228.994 190.957 229ZM150 241C146.567 241 143.198 240.071 140.251 238.31C137.304 236.549 134.888 234.023 133.262 231H166.738C165.112 234.023 162.697 236.55 159.749 238.311C156.802 240.071 153.433 241.001 150 241Z" fill="#1A1A1A"/>
<path d="M193.132 86.866C184.886 78.5781 174.418 72.8521 162.992 70.378C162.996 70.252 162.998 70.126 162.998 70C162.998 66.5522 161.628 63.2456 159.19 60.8076C156.752 58.3696 153.446 57 149.998 57C146.55 57 143.243 58.3696 140.805 60.8076C138.367 63.2456 136.998 66.5522 136.998 70C136.998 70.126 137 70.252 137.004 70.378C125.577 72.8521 115.11 78.5781 106.864 86.866C104.323 89.406 102.008 92.1632 99.9468 95.106C99.8668 95.2196 99.8114 95.3487 99.7841 95.485C99.7568 95.6212 99.7582 95.7617 99.7882 95.8973C99.8183 96.033 99.8762 96.161 99.9584 96.273C100.041 96.385 100.145 96.4787 100.266 96.548C100.484 96.6737 100.741 96.7127 100.986 96.6571C101.232 96.6015 101.447 96.4554 101.59 96.248C103.583 93.4016 105.821 90.7348 108.279 88.278C116.223 80.2931 126.301 74.7666 137.305 72.36L138.255 72.168C146.007 70.616 153.99 70.616 161.743 72.168L162.693 72.36C175.82 75.2607 187.565 82.5543 195.985 93.035C204.405 103.516 208.996 116.556 209 130V172.957C208.996 173.211 209.085 173.457 209.251 173.648C209.417 173.84 209.648 173.963 209.9 173.995C210.039 174.009 210.18 173.994 210.313 173.95C210.446 173.906 210.569 173.834 210.672 173.74C210.776 173.646 210.859 173.531 210.915 173.402C210.972 173.274 211 173.135 211 172.995V130C211.021 121.986 209.453 114.047 206.386 106.643C203.319 99.2395 198.814 92.5173 193.132 86.866ZM155.018 69.2C154.73 69.178 154.44 69.156 154.152 69.136C153.922 69.12 153.692 69.106 153.46 69.094C153.246 69.082 153.03 69.07 152.816 69.06L152.668 69.054C152.468 69.046 152.274 69.038 152.078 69.032C151.848 69.024 151.616 69.016 151.386 69.012C151.156 69.008 150.924 69.002 150.692 69C150.46 68.998 150.232 69 150 69C149.768 69 149.538 69 149.308 69C149.078 69 148.846 69.006 148.614 69.012C148.382 69.018 148.152 69.024 147.922 69.032C147.722 69.038 147.528 69.046 147.332 69.054L147.184 69.06C146.97 69.07 146.754 69.082 146.54 69.094C146.308 69.106 146.078 69.12 145.848 69.136C145.56 69.156 145.27 69.178 144.982 69.2C142.966 69.36 140.97 69.624 139 69.98C139 67.0626 140.159 64.2647 142.222 62.2018C144.284 60.1389 147.082 58.98 150 58.98C152.917 58.98 155.715 60.1389 157.778 62.2018C159.841 64.2647 161 67.0626 161 69.98C159.032 69.628 157.032 69.364 155.018 69.2Z" fill="#1A1A1A"/>
<path d="M232 113H220C219.802 113 219.609 112.941 219.445 112.831C219.28 112.722 219.152 112.565 219.076 112.383C219.001 112.2 218.981 111.999 219.019 111.805C219.058 111.611 219.153 111.433 219.293 111.293L229.586 101H220C219.735 101 219.48 100.895 219.293 100.707C219.105 100.52 219 100.265 219 100C219 99.7348 219.105 99.4804 219.293 99.2929C219.48 99.1054 219.735 99 220 99H232C232.198 99 232.391 99.0587 232.555 99.1686C232.72 99.2785 232.848 99.4346 232.924 99.6173C232.999 99.8 233.019 100.001 232.981 100.195C232.942 100.389 232.847 100.567 232.707 100.707L222.414 111H232C232.265 111 232.52 111.105 232.707 111.293C232.895 111.48 233 111.735 233 112C233 112.265 232.895 112.52 232.707 112.707C232.52 112.895 232.265 113 232 113Z" fill="url(#paint4_linear)"/>
<path d="M246 85H234C233.802 85 233.609 84.9413 233.445 84.8314C233.28 84.7215 233.152 84.5654 233.076 84.3827C233.001 84.2 232.981 83.9989 233.019 83.805C233.058 83.611 233.153 83.4329 233.293 83.293L243.586 73H234C233.735 73 233.48 72.8946 233.293 72.7071C233.105 72.5196 233 72.2652 233 72C233 71.7348 233.105 71.4804 233.293 71.2929C233.48 71.1054 233.735 71 234 71H246C246.198 71 246.391 71.0587 246.555 71.1686C246.72 71.2785 246.848 71.4346 246.924 71.6173C246.999 71.8 247.019 72.0011 246.981 72.195C246.942 72.389 246.847 72.5671 246.707 72.707L236.414 83H246C246.265 83 246.52 83.1054 246.707 83.2929C246.895 83.4804 247 83.7348 247 84C247 84.2652 246.895 84.5196 246.707 84.7071C246.52 84.8946 246.265 85 246 85Z" fill="url(#paint5_linear)"/>
<path d="M224.001 78H200.001C199.605 77.9999 199.219 77.8826 198.89 77.6628C198.561 77.443 198.305 77.1307 198.154 76.7653C198.002 76.3999 197.963 75.9978 198.04 75.6099C198.117 75.222 198.307 74.8657 198.587 74.586L219.172 54H200.001C199.471 54 198.962 53.7893 198.587 53.4142C198.212 53.0391 198.001 52.5304 198.001 52C198.001 51.4696 198.212 50.9609 198.587 50.5858C198.962 50.2107 199.471 50 200.001 50H224.001C224.396 50.0001 224.783 50.1174 225.112 50.3372C225.441 50.557 225.697 50.8693 225.848 51.2347C226 51.6001 226.039 52.0022 225.962 52.3901C225.885 52.778 225.695 53.1343 225.415 53.414L204.829 74H224.001C224.531 74 225.04 74.2107 225.415 74.5858C225.79 74.9609 226.001 75.4696 226.001 76C226.001 76.5304 225.79 77.0391 225.415 77.4142C225.04 77.7893 224.531 78 224.001 78Z" fill="url(#paint6_linear)"/>
<path d="M247.5 156.526H245V158.399H249.375V154.024H247.5V156.526Z" fill="#58B368"/>
<path d="M245 159.651V161.526H247.5V164.026H249.375V159.651H245Z" fill="#58B368"/>
<path d="M250.625 159.651V164.026H252.5V161.526H255V159.651H250.625Z" fill="#58B368"/>
<path d="M252.5 156.526V154.026H250.625V158.399H255V156.524L252.5 156.526Z" fill="#58B368"/>
<path d="M41.854 115.875H40.354V117H42.979V114.375H41.854V115.875Z" fill="#58B368"/>
<path d="M40.354 117.75V118.875H41.854V120.375H42.979V117.75H40.354Z" fill="#58B368"/>
<path d="M43.729 117.75V120.375H44.854V118.875H46.354V117.75H43.729Z" fill="#58B368"/>
<path d="M44.854 115.875V114.375H43.729V117H46.354V115.875H44.854Z" fill="#58B368"/>
<path d="M178.75 23.7041H177.25V24.8291H179.875V22.2041H178.75V23.7041Z" fill="#58B368"/>
<path d="M177.25 25.5791V26.7041H178.75V28.2041H179.875V25.5791H177.25Z" fill="#58B368"/>
<path d="M180.625 25.5791V28.2041H181.75V26.7041H183.25V25.5791H180.625Z" fill="#58B368"/>
<path d="M181.75 23.7041V22.2041H180.625V24.8291H183.25V23.7041H181.75Z" fill="#58B368"/>
<path d="M66.8281 110.453L66.765 108.112L65.0991 109.754L65.9921 107.59L63.8031 108.411L65.4971 106.798L63.1641 106.657L65.364 105.874L63.2901 104.794L65.6201 104.976L64.1641 103.144L66.2191 104.26L65.632 101.993L67.0561 103.85L67.4401 101.54L67.9881 103.817L69.2771 101.863L68.8521 104.163L70.8221 102.903L69.5041 104.838L71.8161 104.49L69.8241 105.715L72.0771 106.339L69.7601 106.646L71.5601 108.134L69.3191 107.47L70.3631 109.57L68.5851 108.05L68.6851 110.39L67.6771 108.277L66.8281 110.453ZM66.937 107.685L66.9871 109.547L67.6671 107.814L68.4671 109.494L68.3851 107.633L69.8011 108.838L68.9701 107.172L70.7531 107.7L69.317 106.516L71.1601 106.271L69.3681 105.771L70.9531 104.797L69.114 105.074L70.166 103.538L68.5991 104.538L68.9361 102.707L67.9111 104.261L67.476 102.45L67.17 104.287L66.037 102.81L66.5041 104.61L64.869 103.722L66.0271 105.179L64.1731 105.034L65.8231 105.893L64.0701 106.516L65.9261 106.628L64.5781 107.911L66.3191 107.257L65.6091 108.978L66.937 107.685Z" fill="#58B368"/>
<path d="M223.584 138.084L223.521 135.747L221.855 137.386L222.748 135.226L220.559 136.046L222.253 134.436L219.92 134.295L222.12 133.513L220.046 132.435L222.376 132.617L220.92 130.789L222.975 131.903L222.388 129.64L223.812 131.494L224.196 129.188L224.744 131.461L226.033 129.511L225.609 131.811L227.58 130.554L226.257 132.481L228.569 132.134L226.577 133.357L228.83 133.98L226.513 134.287L228.313 135.772L226.071 135.11L227.115 137.201L225.336 135.684L225.436 138.019L224.428 135.91L223.584 138.084ZM223.693 135.322L223.743 137.18L224.423 135.45L225.223 137.128L225.141 135.271L226.556 136.477L225.725 134.814L227.508 135.341L226.073 134.159L227.916 133.915L226.124 133.415L227.709 132.442L225.87 132.718L226.922 131.185L225.354 132.185L225.692 130.357L224.667 131.908L224.232 130.1L223.926 131.934L222.793 130.46L223.26 132.26L221.626 131.374L222.784 132.828L220.93 132.684L222.58 133.541L220.828 134.163L222.684 134.275L221.336 135.556L223.077 134.904L222.367 136.622L223.693 135.322Z" fill="#58B368"/>
<path d="M84.432 58.55L84.306 53.8681L80.974 57.153L82.76 52.8251L78.382 54.468L81.771 51.2421L77.105 50.959L81.51 49.3931L77.362 47.2341L82.023 47.5981L79.11 43.9351L83.22 46.1671L82.046 41.6331L84.895 45.347L85.664 40.7271L86.759 45.2811L89.337 41.3741L88.488 45.9801L92.429 43.461L89.781 47.3201L94.404 46.6201L90.42 49.0701L94.925 50.3181L90.291 50.933L93.9 53.9091L89.417 52.582L91.506 56.772L87.949 53.733L88.156 58.412L86.14 54.1861L84.432 58.55ZM84.65 53.015L84.75 56.7381L86.11 53.272L87.71 56.6331L87.545 52.912L90.374 55.3291L88.713 51.9971L92.279 53.0531L89.408 50.6851L93.095 50.196L89.511 49.203L92.68 47.2541L89.002 47.8071L91.102 44.7361L87.967 46.7361L88.642 43.0731L86.592 46.1801L85.722 42.5591L85.111 46.233L82.845 43.2791L83.778 46.884L80.509 45.1091L82.826 48.0231L79.118 47.733L82.418 49.451L78.918 50.6971L82.63 50.9221L79.93 53.4881L83.413 52.181L81.993 55.623L84.65 53.015Z" fill="#58B368"/>
<path d="M133.786 39.6381L133.739 37.8821L132.489 39.1141L133.159 37.4911L131.517 38.1071L132.788 36.8971L131.038 36.7911L132.69 36.2041L131.134 35.3941L132.882 35.5301L131.79 34.1561L133.331 34.9931L132.891 33.2931L133.959 34.6861L134.247 32.9541L134.658 34.6621L135.625 33.1971L135.307 34.9241L136.785 33.9791L135.793 35.4271L137.526 35.1661L136.032 36.0851L137.722 36.5531L135.984 36.7831L137.337 37.8991L135.656 37.3991L136.439 38.9701L135.105 37.8311L135.183 39.5861L134.427 38.0011L133.786 39.6381ZM133.868 37.5621L133.905 38.9621L134.415 37.6621L135.015 38.9221L134.953 37.5221L136.014 38.4281L135.391 37.1781L136.728 37.5781L135.651 36.6901L137.033 36.5071L135.689 36.1351L136.877 35.4041L135.498 35.6111L136.287 34.4591L135.111 35.2101L135.364 33.8371L134.595 35.0021L134.268 33.6441L134.039 35.0221L133.189 33.9141L133.539 35.2661L132.313 34.6001L133.182 35.6921L131.792 35.5831L133.03 36.2271L131.716 36.6941L133.108 36.7781L132.097 37.7401L133.403 37.2501L132.87 38.5411L133.868 37.5621Z" fill="#58B368"/>
<path d="M78.5752 195.561L78.5282 193.805L77.2782 195.037L77.9482 193.414L76.3062 194.03L77.5771 192.82L75.8271 192.714L77.4792 192.127L75.9242 191.317L77.6712 191.454L76.5792 190.08L78.1201 190.917L77.6802 189.217L78.7482 190.61L79.0362 188.877L79.4472 190.585L80.4142 189.12L80.0962 190.847L81.5742 189.903L80.5822 191.351L82.3162 191.09L80.8222 192.009L82.5122 192.477L80.7742 192.708L82.1272 193.824L80.4462 193.324L81.2292 194.895L79.8952 193.755L79.9732 195.51L79.2172 193.925L78.5752 195.561ZM78.6572 193.485L78.6942 194.885L79.2042 193.585L79.8042 194.845L79.7422 193.445L80.8032 194.352L80.1802 193.103L81.5172 193.503L80.4412 192.615L81.8232 192.431L80.4792 192.059L81.6672 191.328L80.2881 191.536L81.0771 190.384L79.9012 191.136L80.1542 189.762L79.3852 190.927L79.0582 189.569L78.8292 190.947L77.9792 189.84L78.3292 191.192L77.1031 190.526L77.9722 191.619L76.5812 191.51L77.8192 192.154L76.5052 192.621L77.8972 192.705L76.8862 193.667L78.1922 193.177L77.6591 194.468L78.6572 193.485Z" fill="#58B368"/>
<path d="M260.06 77.9191L260.013 76.1661L258.763 77.3961L259.433 75.7761L257.792 76.3911L259.063 75.1831L257.313 75.0771L258.965 74.4911L257.41 73.6831L259.158 73.8191L258.066 72.4481L259.607 73.2841L259.167 71.5841L260.235 72.9741L260.523 71.2451L260.934 72.9451L261.901 71.4821L261.583 73.2061L263.061 72.2631L262.069 73.7091L263.803 73.4491L262.309 74.3661L263.999 74.8331L262.261 75.0631L263.614 76.1771L261.933 75.6771L262.716 77.2451L261.382 76.1071L261.46 77.8581L260.704 76.2761L260.06 77.9191ZM260.142 75.8471L260.179 77.2411L260.689 75.9411L261.289 77.1991L261.227 75.8061L262.288 76.7061L261.665 75.4591L263.002 75.8591L261.926 74.9731L263.308 74.7901L261.964 74.4181L263.152 73.6891L261.773 73.8961L262.562 72.7461L261.386 73.4961L261.639 72.1251L260.87 73.2881L260.543 71.9321L260.314 73.3081L259.464 72.2021L259.814 73.5521L258.588 72.8871L259.457 73.9781L258.067 73.8701L259.305 74.5131L257.991 74.9791L259.383 75.0631L258.372 76.0231L259.678 75.5341L259.145 76.8231L260.142 75.8471Z" fill="#58B368"/>
<path d="M60.6782 156.585C61.5066 156.585 62.1782 155.913 62.1782 155.085C62.1782 154.257 61.5066 153.585 60.6782 153.585C59.8498 153.585 59.1782 154.257 59.1782 155.085C59.1782 155.913 59.8498 156.585 60.6782 156.585Z" fill="#58B368"/>
<path d="M87.877 85.1362C88.9815 85.1362 89.877 84.2408 89.877 83.1362C89.877 82.0317 88.9815 81.1362 87.877 81.1362C86.7724 81.1362 85.877 82.0317 85.877 83.1362C85.877 84.2408 86.7724 85.1362 87.877 85.1362Z" fill="#58B368"/>
<path d="M187.119 62.8643C188.224 62.8643 189.119 61.9688 189.119 60.8643C189.119 59.7597 188.224 58.8643 187.119 58.8643C186.015 58.8643 185.119 59.7597 185.119 60.8643C185.119 61.9688 186.015 62.8643 187.119 62.8643Z" fill="#58B368"/>
<path d="M231 178.5C231.828 178.5 232.5 177.828 232.5 177C232.5 176.172 231.828 175.5 231 175.5C230.172 175.5 229.5 176.172 229.5 177C229.5 177.828 230.172 178.5 231 178.5Z" fill="#58B368"/>
<path d="M45.042 71.4839C45.8704 71.4839 46.542 70.8123 46.542 69.9839C46.542 69.1555 45.8704 68.4839 45.042 68.4839C44.2136 68.4839 43.542 69.1555 43.542 69.9839C43.542 70.8123 44.2136 71.4839 45.042 71.4839Z" fill="#58B368"/>
<defs>
<linearGradient id="paint0_linear" x1="150" y1="70" x2="150" y2="230" gradientUnits="userSpaceOnUse">
<stop stop-color="#58B368"/>
<stop offset="1" stop-color="#309975"/>
</linearGradient>
<linearGradient id="paint1_linear" x1="150" y1="210" x2="150" y2="230" gradientUnits="userSpaceOnUse">
<stop stop-color="#58B368"/>
<stop offset="1" stop-color="#309975"/>
</linearGradient>
<linearGradient id="paint2_linear" x1="148" y1="58.167" x2="148" y2="70.5282" gradientUnits="userSpaceOnUse">
<stop stop-color="#58B368"/>
<stop offset="1" stop-color="#309975"/>
</linearGradient>
<linearGradient id="paint3_linear" x1="147.002" y1="230" x2="147.002" y2="241.777" gradientUnits="userSpaceOnUse">
<stop stop-color="#58B368"/>
<stop offset="1" stop-color="#309975"/>
</linearGradient>
<linearGradient id="paint4_linear" x1="226" y1="99" x2="226" y2="113" gradientUnits="userSpaceOnUse">
<stop stop-color="#58B368"/>
<stop offset="1" stop-color="#DAD873"/>
</linearGradient>
<linearGradient id="paint5_linear" x1="240" y1="71" x2="240" y2="85" gradientUnits="userSpaceOnUse">
<stop stop-color="#58B368"/>
<stop offset="1" stop-color="#DAD873"/>
</linearGradient>
<linearGradient id="paint6_linear" x1="212.001" y1="50" x2="212.001" y2="78" gradientUnits="userSpaceOnUse">
<stop stop-color="#58B368"/>
<stop offset="1" stop-color="#DAD873"/>
</linearGradient>
</defs>
</svg>
